<svg xmlns="http://www.w3.org/2000/svg" viewBox="0 0 1200 900" fill="none" role="img" aria-hidden="true">
  <defs>
    <linearGradient id="bg" x1="120" y1="86" x2="1080" y2="818" gradientUnits="userSpaceOnUse">
      <stop stop-color="#071A34"/>
      <stop offset=".52" stop-color="#0B2C56"/>
      <stop offset="1" stop-color="#0D5367"/>
    </linearGradient>
    <linearGradient id="panel" x1="132" y1="114" x2="1048" y2="760" gradientUnits="userSpaceOnUse">
      <stop stop-color="#FFFFFF" stop-opacity=".2"/>
      <stop offset="1" stop-color="#D8F4FF" stop-opacity=".08"/>
    </linearGradient>
    <linearGradient id="light" x1="188" y1="168" x2="742" y2="530" gradientUnits="userSpaceOnUse">
      <stop stop-color="#FDFEFF"/>
      <stop offset="1" stop-color="#E8F3FF"/>
    </linearGradient>
    <radialGradient id="glowA" cx="0" cy="0" r="1" gradientUnits="userSpaceOnUse" gradientTransform="translate(1018 188) rotate(90) scale(238)">
      <stop stop-color="#45C7FF" stop-opacity=".38"/>
      <stop offset="1" stop-color="#45C7FF" stop-opacity="0"/>
    </radialGradient>
    <radialGradient id="glowB" cx="0" cy="0" r="1" gradientUnits="userSpaceOnUse" gradientTransform="translate(214 770) rotate(90) scale(220)">
      <stop stop-color="#FF7A8B" stop-opacity=".26"/>
      <stop offset="1" stop-color="#FF7A8B" stop-opacity="0"/>
    </radialGradient>
    <filter id="shadow" x="82" y="68" width="1040" height="736" filterUnits="userSpaceOnUse" color-interpolation-filters="sRGB">
      <feDropShadow dx="0" dy="24" stdDeviation="24" flood-color="#031221" flood-opacity=".36"/>
    </filter>
  </defs>

  <rect width="1200" height="900" rx="64" fill="url(#bg)"/>
  <circle cx="1018" cy="188" r="238" fill="url(#glowA)"/>
  <circle cx="214" cy="770" r="220" fill="url(#glowB)"/>

  <g opacity=".16" stroke="#92EAFF" stroke-width="2">
    <path d="M92 158H292"/>
    <path d="M920 116H1100"/>
    <path d="M916 796H1088"/>
  </g>

  <g filter="url(#shadow)">
    <rect x="132" y="114" width="936" height="644" rx="42" fill="url(#panel)" stroke="#8DE9FF" stroke-opacity=".18"/>

    <rect x="180" y="164" width="382" height="236" rx="30" fill="url(#light)"/>
    <rect x="212" y="200" width="146" height="16" rx="8" fill="#0F315D" fill-opacity=".18"/>
    <rect x="212" y="232" width="98" height="16" rx="8" fill="#0F315D" fill-opacity=".1"/>
    <rect x="212" y="284" width="316" height="62" rx="18" fill="#EDF4FB"/>
    <rect x="232" y="304" width="122" height="14" rx="7" fill="#0F74F6" fill-opacity=".18"/>
    <rect x="212" y="366" width="110" height="14" rx="7" fill="#0F315D" fill-opacity=".12"/>
    <rect x="336" y="366" width="192" height="14" rx="7" fill="#0F315D" fill-opacity=".08"/>

    <rect x="180" y="430" width="382" height="260" rx="30" fill="#0D2147" stroke="#8AE8FF" stroke-opacity=".16"/>
    <rect x="212" y="462" width="150" height="16" rx="8" fill="#D9EEFF" fill-opacity=".2"/>
    <rect x="212" y="494" width="102" height="16" rx="8" fill="#D9EEFF" fill-opacity=".12"/>
    <rect x="212" y="548" width="318" height="54" rx="18" fill="#102C63"/>
    <circle cx="248" cy="575" r="16" fill="#45C7FF"/>
    <rect x="278" y="566" width="158" height="12" rx="6" fill="#D9EEFF" fill-opacity=".28"/>
    <rect x="278" y="588" width="102" height="10" rx="5" fill="#D9EEFF" fill-opacity=".16"/>
    <rect x="212" y="620" width="152" height="18" rx="9" fill="#2DE1C2" fill-opacity=".22"/>
    <rect x="378" y="620" width="152" height="18" rx="9" fill="#FF7A8B" fill-opacity=".22"/>

    <rect x="604" y="164" width="416" height="526" rx="34" fill="#F6FBFF" fill-opacity=".94"/>
    <rect x="636" y="198" width="182" height="18" rx="9" fill="#0F315D" fill-opacity=".16"/>
    <rect x="636" y="230" width="118" height="18" rx="9" fill="#0F315D" fill-opacity=".1"/>

    <rect x="636" y="276" width="348" height="156" rx="28" fill="#0E1F4C"/>
    <path d="M678 388V334" stroke="#45C7FF" stroke-width="24" stroke-linecap="round"/>
    <path d="M740 388V314" stroke="#2DE1C2" stroke-width="24" stroke-linecap="round"/>
    <path d="M802 388V296" stroke="#FFD84A" stroke-width="24" stroke-linecap="round"/>
    <path d="M864 388V344" stroke="#FF7A8B" stroke-width="24" stroke-linecap="round"/>
    <circle cx="924" cy="326" r="28" fill="#45C7FF" fill-opacity=".14"/>
    <path d="M912 327L922 337L940 314" stroke="#45C7FF" stroke-width="8" stroke-linecap="round" stroke-linejoin="round"/>

    <rect x="636" y="462" width="164" height="184" rx="26" fill="#EDF4FB"/>
    <rect x="662" y="492" width="86" height="14" rx="7" fill="#0F315D" fill-opacity=".14"/>
    <circle cx="718" cy="560" r="38" fill="#0F74F6" fill-opacity=".14"/>
    <circle cx="718" cy="560" r="20" fill="#0F74F6"/>
    <circle cx="718" cy="560" r="8" fill="#F8FCFF"/>
    <path d="M702 590L712 600L736 576" stroke="#0F74F6" stroke-width="8" stroke-linecap="round" stroke-linejoin="round"/>

    <rect x="820" y="462" width="164" height="184" rx="26" fill="#EDF4FB"/>
    <rect x="846" y="492" width="86" height="14" rx="7" fill="#0F315D" fill-opacity=".14"/>
    <rect x="846" y="536" width="112" height="18" rx="9" fill="#D6EAF8"/>
    <rect x="846" y="536" width="88" height="18" rx="9" fill="#FF7A8B"/>
    <rect x="846" y="570" width="112" height="18" rx="9" fill="#D6EAF8"/>
    <rect x="846" y="570" width="72" height="18" rx="9" fill="#45C7FF"/>
    <rect x="846" y="604" width="112" height="18" rx="9" fill="#D6EAF8"/>
    <rect x="846" y="604" width="96" height="18" rx="9" fill="#2DE1C2"/>

    <rect x="103" y="290" width="90" height="118" rx="18" fill="#F5FBFF" fill-opacity=".86" stroke="#8DE9FF" stroke-opacity=".22"/>
    <rect x="120" y="314" width="18" height="18" rx="4" fill="#0F315D"/>
    <rect x="145" y="314" width="18" height="18" rx="4" fill="#0F315D"/>
    <rect x="120" y="339" width="18" height="18" rx="4" fill="#0F315D" fill-opacity=".32"/>
    <rect x="145" y="364" width="18" height="18" rx="4" fill="#0F315D"/>

    <rect x="938" y="108" width="120" height="84" rx="22" fill="#0E1F4C" stroke="#8AE8FF" stroke-opacity=".16"/>
    <path d="M972 148L994 126L1018 150L996 172L972 148Z" fill="#FFD84A"/>
    <circle cx="1024" cy="138" r="14" fill="#FF7A8B"/>
  </g>

  <g opacity=".96">
    <circle cx="944" cy="92" r="7" fill="#45C7FF"/>
    <circle cx="980" cy="84" r="5" fill="#FFD84A"/>
    <circle cx="1096" cy="292" r="7" fill="#2DE1C2"/>
    <path d="M1042 736L1049 750L1064 752L1053 762L1055 778L1042 771L1029 778L1031 762L1020 752L1035 750L1042 736Z" fill="#FFD84A"/>
    <path d="M140 210L148 226L166 228L153 240L156 258L140 249L124 258L127 240L114 228L132 226L140 210Z" fill="#FF7A8B"/>
    <path d="M111 684C142 654 188 642 228 650" stroke="#45C7FF" stroke-width="6" stroke-linecap="round"/>
  </g>
</svg>
