<svg xmlns="http://www.w3.org/2000/svg" viewBox="0 0 1200 900" fill="none" role="img" aria-hidden="true">
  <defs>
    <linearGradient id="bg" x1="136" y1="90" x2="1060" y2="820" gradientUnits="userSpaceOnUse">
      <stop stop-color="#071A35"/>
      <stop offset=".5" stop-color="#0E315F"/>
      <stop offset="1" stop-color="#115B73"/>
    </linearGradient>
    <radialGradient id="glowLeft" cx="0" cy="0" r="1" gradientUnits="userSpaceOnUse" gradientTransform="translate(160 152) rotate(90) scale(250)">
      <stop stop-color="#FF7A8B" stop-opacity=".42"/>
      <stop offset="1" stop-color="#FF7A8B" stop-opacity="0"/>
    </radialGradient>
    <radialGradient id="glowRight" cx="0" cy="0" r="1" gradientUnits="userSpaceOnUse" gradientTransform="translate(1016 760) rotate(90) scale(260)">
      <stop stop-color="#FFD84A" stop-opacity=".24"/>
      <stop offset="1" stop-color="#FFD84A" stop-opacity="0"/>
    </radialGradient>
    <linearGradient id="phoneFrame" x1="378" y1="102" x2="826" y2="800" gradientUnits="userSpaceOnUse">
      <stop stop-color="#F7FBFF"/>
      <stop offset="1" stop-color="#DCECFB"/>
    </linearGradient>
    <linearGradient id="screen" x1="410" y1="150" x2="788" y2="770" gradientUnits="userSpaceOnUse">
      <stop stop-color="#FDFEFF"/>
      <stop offset="1" stop-color="#EEF5FF"/>
    </linearGradient>
    <linearGradient id="red" x1="0" y1="0" x2="165" y2="128" gradientUnits="userSpaceOnUse">
      <stop stop-color="#FF5D74"/>
      <stop offset="1" stop-color="#E11D48"/>
    </linearGradient>
    <linearGradient id="blue" x1="0" y1="0" x2="165" y2="128" gradientUnits="userSpaceOnUse">
      <stop stop-color="#57D3FF"/>
      <stop offset="1" stop-color="#0F74F6"/>
    </linearGradient>
    <linearGradient id="gold" x1="0" y1="0" x2="165" y2="128" gradientUnits="userSpaceOnUse">
      <stop stop-color="#FFD958"/>
      <stop offset="1" stop-color="#F59E0B"/>
    </linearGradient>
    <linearGradient id="green" x1="0" y1="0" x2="165" y2="128" gradientUnits="userSpaceOnUse">
      <stop stop-color="#46E5A9"/>
      <stop offset="1" stop-color="#14B86E"/>
    </linearGradient>
    <filter id="shadow" x="304" y="40" width="592" height="792" filterUnits="userSpaceOnUse" color-interpolation-filters="sRGB">
      <feDropShadow dx="0" dy="26" stdDeviation="28" flood-color="#02111F" flood-opacity=".34"/>
    </filter>
  </defs>

  <rect width="1200" height="900" rx="64" fill="url(#bg)"/>
  <circle cx="160" cy="152" r="250" fill="url(#glowLeft)"/>
  <circle cx="1016" cy="760" r="260" fill="url(#glowRight)"/>

  <g opacity=".16" stroke="#89EBFF" stroke-width="2">
    <path d="M90 742H280"/>
    <path d="M934 144H1110"/>
    <path d="M930 792H1092"/>
  </g>

  <g filter="url(#shadow)">
    <rect x="356" y="84" width="488" height="732" rx="64" fill="url(#phoneFrame)"/>
    <rect x="392" y="130" width="416" height="640" rx="48" fill="url(#screen)"/>
    <rect x="520" y="104" width="160" height="16" rx="8" fill="#D3E4F6"/>

    <rect x="426" y="170" width="160" height="18" rx="9" fill="#12325B" fill-opacity=".16"/>
    <rect x="426" y="202" width="248" height="18" rx="9" fill="#12325B" fill-opacity=".1"/>

    <rect x="426" y="250" width="348" height="94" rx="28" fill="#0D2147"/>
    <circle cx="474" cy="297" r="22" fill="#FFD84A"/>
    <rect x="512" y="280" width="188" height="16" rx="8" fill="#C5EFFF" fill-opacity=".34"/>
    <rect x="512" y="312" width="134" height="14" rx="7" fill="#C5EFFF" fill-opacity=".18"/>

    <rect x="426" y="376" width="165" height="128" rx="26" fill="url(#red)"/>
    <path d="M485 459L520 414L555 459H485Z" fill="#FFF8FB"/>
    <rect x="610" y="376" width="165" height="128" rx="26" fill="url(#blue)"/>
    <path d="M692 414L726 440L700 476L666 450L692 414Z" fill="#F8FCFF"/>
    <rect x="426" y="522" width="165" height="128" rx="26" fill="url(#gold)"/>
    <circle cx="508" cy="586" r="28" fill="#FFF7E6"/>
    <rect x="610" y="522" width="165" height="128" rx="26" fill="url(#green)"/>
    <rect x="678" y="555" width="42" height="42" rx="8" fill="#F0FFF8"/>

    <rect x="426" y="676" width="348" height="54" rx="18" fill="#EAF4FD"/>
    <rect x="458" y="696" width="172" height="14" rx="7" fill="#0F315D" fill-opacity=".12"/>
    <rect x="646" y="690" width="96" height="26" rx="13" fill="#0F74F6" fill-opacity=".14"/>

    <rect x="112" y="176" width="154" height="188" rx="28" fill="#F3FBFF" fill-opacity=".94" stroke="#8AE8FF" stroke-opacity=".22"/>
    <rect x="140" y="214" width="26" height="26" rx="5" fill="#0F315D"/>
    <rect x="176" y="214" width="26" height="26" rx="5" fill="#0F315D"/>
    <rect x="212" y="214" width="26" height="26" rx="5" fill="#0F315D" fill-opacity=".34"/>
    <rect x="140" y="250" width="26" height="26" rx="5" fill="#0F315D"/>
    <rect x="176" y="286" width="26" height="26" rx="5" fill="#0F315D"/>
    <rect x="212" y="286" width="26" height="26" rx="5" fill="#0F315D"/>
    <rect x="140" y="322" width="98" height="12" rx="6" fill="#0F315D" fill-opacity=".14"/>

    <rect x="930" y="174" width="168" height="112" rx="28" fill="#0C2046" stroke="#8AE8FF" stroke-opacity=".16"/>
    <circle cx="970" cy="230" r="24" fill="#FF7A8B"/>
    <circle cx="1014" cy="230" r="24" fill="#45C7FF"/>
    <circle cx="1058" cy="230" r="24" fill="#2DE1C2"/>
    <rect x="954" y="178" width="120" height="14" rx="7" fill="#C4F1FF" fill-opacity=".18"/>

    <rect x="124" y="610" width="206" height="142" rx="30" fill="#0D2147" stroke="#8AE8FF" stroke-opacity=".16"/>
    <circle cx="172" cy="668" r="28" fill="#45C7FF"/>
    <circle cx="236" cy="668" r="28" fill="#FFD84A"/>
    <circle cx="204" cy="706" r="28" fill="#FF7A8B"/>
    <rect x="268" y="650" width="30" height="16" rx="8" fill="#D6EEFF" fill-opacity=".22"/>
    <rect x="268" y="684" width="42" height="16" rx="8" fill="#D6EEFF" fill-opacity=".14"/>

    <rect x="908" y="572" width="176" height="132" rx="30" fill="#F5FBFF" fill-opacity=".94" stroke="#8AE8FF" stroke-opacity=".2"/>
    <rect x="940" y="610" width="110" height="16" rx="8" fill="#0F315D" fill-opacity=".14"/>
    <rect x="940" y="640" width="86" height="16" rx="8" fill="#0F315D" fill-opacity=".1"/>
    <path d="M992 582L1002 602H1024L1006 614L1014 636L992 622L970 636L978 614L960 602H982L992 582Z" fill="#FFD84A"/>
  </g>

  <g opacity=".96">
    <circle cx="870" cy="120" r="8" fill="#FF7A8B"/>
    <circle cx="914" cy="104" r="6" fill="#FFD84A"/>
    <circle cx="312" cy="142" r="5" fill="#45C7FF"/>
    <path d="M1038 378L1047 396L1066 398L1052 410L1056 430L1038 420L1020 430L1024 410L1010 398L1029 396L1038 378Z" fill="#2DE1C2"/>
    <path d="M180 530L188 546L206 548L193 560L196 579L180 570L164 579L167 560L154 548L172 546L180 530Z" fill="#45C7FF"/>
    <path d="M108 108C124 92 146 88 168 92" stroke="#FFD84A" stroke-width="6" stroke-linecap="round"/>
    <path d="M1040 770C1020 748 994 736 964 736" stroke="#FF7A8B" stroke-width="6" stroke-linecap="round"/>
  </g>
</svg>
